<svg width="40" height="40" viewBox="0 0 40 40" fill="none" xmlns="http://www.w3.org/2000/svg">
  <rect width="40" height="40" rx="10" fill="#10b981"/>
  <path d="M12 10C12 10 14 12 14 14C14 16 12 18 12 18" stroke="white" stroke-width="2.5" stroke-linecap="round" stroke-linejoin="round"/>
  <path d="M28 10C28 10 26 12 26 14C26 16 28 18 28 18" stroke="white" stroke-width="2.5" stroke-linecap="round" stroke-linejoin="round"/>
  <rect x="16" y="8" width="8" height="12" rx="2" stroke="white" stroke-width="2" fill="none"/>
  <path d="M10 22H30V30C30 31.1046 29.1046 32 28 32H12C10.8954 32 10 31.1046 10 30V22Z" fill="white" fill-opacity="0.3" stroke="white" stroke-width="2" stroke-linejoin="round"/>
  <path d="M20 22V32" stroke="white" stroke-width="1.5" stroke-dasharray="2 2"/>
  <circle cx="20" cy="27" r="2" fill="white"/>
</svg>
